<svg width="32" height="32" viewBox="0 0 32 32" fill="none" xmlns="http://www.w3.org/2000/svg">
<circle cx="16" cy="16" r="16" fill="#FFF1F0"/>
<path d="M6.48213 13.325L8.51071 9.26429C8.89999 8.48929 9.68928 8 10.5571 8H21.4464C22.3107 8 23.1036 8.48929 23.4893 9.26429L25.5179 13.325C25.6464 13.5821 25.7143 13.8643 25.7143 14.1536C25.7143 15.1286 24.9571 15.9286 24 15.9964V22.8571C24 23.4893 23.4893 24 22.8571 24C22.225 24 21.7143 23.4893 21.7143 22.8571V16H18.2857V22.2857C18.2857 23.2321 17.5178 24 16.5714 24H9.71428C8.76785 24 7.99999 23.2321 7.99999 22.2857V15.9964C7.04285 15.9286 6.28571 15.1286 6.28571 14.1536C6.28571 13.8679 6.35356 13.5821 6.48213 13.325ZM10.2857 16V20C10.2857 20.3143 10.5428 20.5714 10.8571 20.5714H15.4286C15.7429 20.5714 16 20.3143 16 20V16H10.2857Z" fill="url(#paint0_linear_166_15807)"/>
<defs>
<linearGradient id="paint0_linear_166_15807" x1="16" y1="8" x2="16" y2="24.0157" gradientUnits="userSpaceOnUse">
<stop stop-color="#FF7A6E"/>
<stop offset="1" stop-color="#FF7A6E" stop-opacity="0"/>
</linearGradient>
</defs>
</svg>
