<svg width="27" height="27" viewBox="0 0 27 27" fill="none" xmlns="http://www.w3.org/2000/svg">
<path d="M11.4 19.8L21.975 9.225L19.875 7.125L11.4 15.6L7.125 11.325L5.025 13.425L11.4 19.8ZM3 27C2.175 27 1.46875 26.7063 0.88125 26.1188C0.29375 25.5312 0 24.825 0 24V3C0 2.175 0.29375 1.46875 0.88125 0.88125C1.46875 0.29375 2.175 0 3 0H24C24.825 0 25.5312 0.29375 26.1188 0.88125C26.7063 1.46875 27 2.175 27 3V24C27 24.825 26.7063 25.5312 26.1188 26.1188C25.5312 26.7063 24.825 27 24 27H3Z" fill="#FF7A6E"/>
</svg>
