<svg width="91" height="91" viewBox="0 0 91 91" fill="none" xmlns="http://www.w3.org/2000/svg">
<path d="M50.5547 77.6572C52.1281 77.6574 53.3984 78.9467 53.3984 80.5391C53.4009 80.9146 53.329 81.2869 53.1875 81.6348C53.0459 81.9828 52.8373 82.3001 52.5732 82.5674C52.3092 82.8346 51.9946 83.0466 51.6484 83.1924C51.3022 83.3381 50.9303 83.415 50.5547 83.417H40.4453C40.0695 83.4145 39.6978 83.3375 39.3516 83.1914C39.0052 83.0452 38.6908 82.832 38.4268 82.5645C38.1628 82.2969 37.954 81.98 37.8125 81.6318C37.671 81.2837 37.5991 80.9148 37.6016 80.5391C37.6016 78.9467 38.872 77.6575 40.4453 77.6572H50.5547ZM53.083 68.0566C54.6528 68.0566 55.9268 69.346 55.9268 70.9385C55.9266 72.5309 54.6527 73.8203 53.083 73.8203H37.917C37.5411 73.8178 37.1686 73.7409 36.8223 73.5947C36.4761 73.4486 36.1624 73.2352 35.8984 72.9678C35.6344 72.7002 35.4248 72.3834 35.2832 72.0352C35.1417 71.687 35.0708 71.3143 35.0732 70.9385C35.0732 69.346 36.3472 68.0566 37.917 68.0566H53.083ZM45.5 7.58301C60.1584 7.58301 72.0417 18.359 72.042 31.459L72.0381 31.7822C72.0076 39.445 68.747 46.8201 62.9004 52.4316L58.7139 56.4238C57.5423 57.5424 56.875 59.105 56.875 60.7354C56.8748 63.1883 54.9109 65.1786 52.4883 65.1787H38.5117C36.0891 65.1786 34.1252 63.1883 34.125 60.7354C34.125 59.105 33.4615 57.5424 32.2861 56.4238L28.0967 52.4316C22.2576 46.8201 18.9923 39.445 18.958 31.7822V31.459C18.9583 18.359 30.8416 7.58301 45.5 7.58301Z" fill="url(#paint0_linear_860_2475)"/>
<defs>
<linearGradient id="paint0_linear_860_2475" x1="45.5" y1="7.58301" x2="45.5" y2="101.5" gradientUnits="userSpaceOnUse">
<stop stop-color="#FF7A6E"/>
<stop offset="1" stop-color="#FF7A6E" stop-opacity="0"/>
</linearGradient>
</defs>
</svg>
