<svg width="84" height="86" viewBox="0 0 84 86" fill="none" xmlns="http://www.w3.org/2000/svg">
<path fill-rule="evenodd" clip-rule="evenodd" d="M24.7879 53.52C26.7666 53.5602 28.7335 53.2051 30.5733 52.4756C32.4131 51.7462 34.0889 50.6569 35.5025 49.2717C36.9161 47.8865 38.0392 46.2332 38.8058 44.4085C39.5725 42.5839 39.9674 40.6246 39.9674 38.6455C39.9674 36.6663 39.5725 34.707 38.8058 32.8824C38.0392 31.0577 36.9161 29.4044 35.5025 28.0192C34.0889 26.634 32.4131 25.5447 30.5733 24.8153C28.7335 24.0858 26.7666 23.7307 24.7879 23.7709C20.8952 23.8499 17.1885 25.4517 14.4635 28.2326C11.7384 31.0136 10.2121 34.7519 10.2121 38.6455C10.2121 42.539 11.7384 46.2773 14.4635 49.0583C17.1885 51.8392 20.8952 53.441 24.7879 53.52ZM0 83.2691C0.10229 76.7617 2.75918 70.5553 7.39725 65.9896C12.0353 61.4238 18.2827 58.8648 24.7909 58.8648C31.2992 58.8648 37.5466 61.4238 42.1846 65.9896C46.8227 70.5553 49.4796 76.7617 49.5819 83.2691C49.5819 83.927 49.3205 84.558 48.8553 85.0232C48.3901 85.4884 47.7592 85.7498 47.1013 85.7498H2.48063C1.82272 85.7498 1.19177 85.4884 0.726558 85.0232C0.261351 84.558 0 83.927 0 83.2691Z" fill="url(#paint0_linear_860_3087)"/>
<path fill-rule="evenodd" clip-rule="evenodd" d="M48.4521 9.65867C48.4521 8.37786 48.961 7.1495 49.8666 6.24382C50.7723 5.33815 52.0007 4.82935 53.2815 4.82935H75.8183C77.0992 4.82935 78.3275 5.33815 79.2332 6.24382C80.1389 7.1495 80.6477 8.37786 80.6477 9.65867V25.7564C80.6477 27.0372 80.1389 28.2656 79.2332 29.1713C78.3275 30.077 77.0992 30.5858 75.8183 30.5858H57.0371L51.6717 34.6102C50.3452 35.605 48.4521 34.6585 48.4521 33.0004V9.65867Z" fill="url(#paint1_linear_860_3087)"/>
<path fill-rule="evenodd" clip-rule="evenodd" d="M58.1098 19.3173C57.6828 19.3173 57.2734 19.4869 56.9715 19.7888C56.6696 20.0907 56.5 20.5001 56.5 20.9271C56.5 21.354 56.6696 21.7634 56.9715 22.0653C57.2734 22.3672 57.6828 22.5368 58.1098 22.5368H62.9391C63.366 22.5368 63.7755 22.3672 64.0774 22.0653C64.3793 21.7634 64.5489 21.354 64.5489 20.9271C64.5489 20.5001 64.3793 20.0907 64.0774 19.7888C63.7755 19.4869 63.366 19.3173 62.9391 19.3173H58.1098ZM56.5 14.4879C56.5 14.061 56.6696 13.6516 56.9715 13.3497C57.2734 13.0478 57.6828 12.8782 58.1098 12.8782H70.988C71.4149 12.8782 71.8244 13.0478 72.1263 13.3497C72.4282 13.6516 72.5978 14.061 72.5978 14.4879C72.5978 14.9149 72.4282 15.3243 72.1263 15.6262C71.8244 15.9281 71.4149 16.0977 70.988 16.0977H58.1098C57.6828 16.0977 57.2734 15.9281 56.9715 15.6262C56.6696 15.3243 56.5 14.9149 56.5 14.4879Z" fill="#F7F7F7"/>
<defs>
<linearGradient id="paint0_linear_860_3087" x1="24.7909" y1="23.7678" x2="24.7909" y2="85.8104" gradientUnits="userSpaceOnUse">
<stop stop-color="#FF7A6E"/>
<stop offset="1" stop-color="#FF7A6E" stop-opacity="0"/>
</linearGradient>
<linearGradient id="paint1_linear_860_3087" x1="64.5499" y1="4.82935" x2="64.5499" y2="35.0458" gradientUnits="userSpaceOnUse">
<stop stop-color="#FF7A6E"/>
<stop offset="1" stop-color="#FF7A6E" stop-opacity="0"/>
</linearGradient>
</defs>
</svg>
