<svg width="106" height="94" viewBox="0 0 106 94" fill="none" xmlns="http://www.w3.org/2000/svg">
<path d="M3.95649 33.2488L14.4093 12.3742C16.4152 8.39023 20.4822 5.875 24.9541 5.875H81.0641C85.5176 5.875 89.603 8.39023 91.5905 12.3742L102.043 33.2488C102.706 34.5707 103.055 36.0211 103.055 37.5082C103.055 42.5203 99.1541 46.6328 94.2221 46.9816V82.25C94.2221 85.4996 91.5905 88.125 88.3332 88.125C85.0759 88.125 82.4443 85.4996 82.4443 82.25V47H64.7777V79.3125C64.7777 84.1777 60.8211 88.125 55.9443 88.125H20.611C15.7343 88.125 11.7777 84.1777 11.7777 79.3125V46.9816C6.84573 46.6328 2.94434 42.5203 2.94434 37.5082C2.94434 36.0395 3.29399 34.5707 3.95649 33.2488ZM23.5554 47V67.5625C23.5554 69.1781 24.8804 70.5 26.4999 70.5H50.0555C51.6749 70.5 52.9999 69.1781 52.9999 67.5625V47H23.5554Z" fill="url(#paint0_linear_1_11756)"/>
<defs>
<linearGradient id="paint0_linear_1_11756" x1="52.9999" y1="5.875" x2="52.9999" y2="88.2055" gradientUnits="userSpaceOnUse">
<stop stop-color="#FF7A6E"/>
<stop offset="1" stop-color="#FF7A6E" stop-opacity="0"/>
</linearGradient>
</defs>
</svg>
