<svg width="50" height="50" viewBox="0 0 50 50" fill="none" xmlns="http://www.w3.org/2000/svg">
<rect width="49.7462" height="49.7462" rx="24.8731" fill="#F7F7F7"/>
<path d="M31.4672 35.8153C30.5137 35.8153 29.1742 35.4704 27.1685 34.3498C24.7294 32.982 22.8428 31.7192 20.417 29.2997C18.0781 26.9623 16.9399 25.4489 15.3469 22.5502C13.5473 19.2773 13.8541 17.5617 14.197 16.8284C14.6054 15.9521 15.2082 15.4279 15.9873 14.9077C16.4299 14.6177 16.8982 14.3692 17.3864 14.1652C17.4352 14.1442 17.4806 14.1241 17.5212 14.1061C17.763 13.9971 18.1294 13.8325 18.5934 14.0084C18.9031 14.1246 19.1796 14.3625 19.6124 14.79C20.5 15.6653 21.713 17.6149 22.1604 18.5724C22.4608 19.2177 22.6597 19.6436 22.6602 20.1214C22.6602 20.6807 22.3788 21.1121 22.0373 21.5776C21.9733 21.665 21.9098 21.7486 21.8483 21.8297C21.4765 22.3182 21.3949 22.4593 21.4487 22.7114C21.5576 23.218 22.37 24.7259 23.705 26.0581C25.0401 27.3902 26.5046 28.1513 27.0131 28.2597C27.2759 28.3159 27.42 28.2309 27.9242 27.846C27.9965 27.7908 28.0707 27.7336 28.1484 27.6765C28.6691 27.2891 29.0804 27.015 29.6266 27.015H29.6295C30.1048 27.015 30.5117 27.2212 31.1859 27.5612C32.0651 28.0047 34.0733 29.202 34.9541 30.0906C35.3825 30.5224 35.6214 30.7979 35.7381 31.1072C35.914 31.5727 35.7484 31.9376 35.6404 32.1818C35.6224 32.2224 35.6023 32.2668 35.5813 32.3162C35.3757 32.8035 35.1257 33.2708 34.8344 33.7123C34.3151 34.489 33.789 35.0903 32.9107 35.4992C32.4597 35.7126 31.9661 35.8206 31.4672 35.8153Z" fill="black"/>
</svg>
