<svg width="48" height="48" viewBox="0 0 48 48" fill="none" xmlns="http://www.w3.org/2000/svg">
<rect width="48" height="48" rx="24" fill="#FF7A6E"/>
<path d="M23.026 33.6927V32.7186C20.9966 32.4913 19.2552 31.6513 17.8018 30.1985C16.3484 28.7458 15.5084 27.0044 15.2817 24.9743H14.3076C14.0316 24.9743 13.8004 24.8808 13.614 24.6937C13.4277 24.5067 13.3341 24.2755 13.3335 24.0002C13.3329 23.7248 13.4264 23.4936 13.614 23.3066C13.8017 23.1196 14.0329 23.026 14.3076 23.026H15.2817C15.509 20.9966 16.3494 19.2552 17.8028 17.8018C19.2562 16.3484 20.9973 15.5084 23.026 15.2817V14.3076C23.026 14.0316 23.1196 13.8004 23.3066 13.614C23.4936 13.4277 23.7248 13.3341 24.0002 13.3335C24.2755 13.3329 24.507 13.4264 24.6947 13.614C24.8824 13.8017 24.9756 14.0329 24.9743 14.3076V15.2817C27.0037 15.509 28.7451 16.3494 30.1985 17.8028C31.6519 19.2562 32.4919 20.9973 32.7186 23.026H33.6927C33.9687 23.026 34.2002 23.1196 34.3873 23.3066C34.5743 23.4936 34.6675 23.7248 34.6668 24.0002C34.6662 24.2755 34.573 24.507 34.3873 24.6947C34.2015 24.8824 33.97 24.9756 33.6927 24.9743H32.7186C32.4913 27.0037 31.6513 28.7451 30.1985 30.1985C28.7458 31.6519 27.0044 32.4919 24.9743 32.7186V33.6927C24.9743 33.9687 24.8808 34.2002 24.6937 34.3873C24.5067 34.5743 24.2755 34.6675 24.0002 34.6668C23.7248 34.6662 23.4936 34.573 23.3066 34.3873C23.1196 34.2015 23.026 33.97 23.026 33.6927ZM24.0002 30.819C25.8835 30.819 27.4908 30.1534 28.8221 28.8221C30.1534 27.4908 30.819 25.8835 30.819 24.0002C30.819 22.1169 30.1534 20.5096 28.8221 19.1782C27.4908 17.8469 25.8835 17.1813 24.0002 17.1813C22.1169 17.1813 20.5096 17.8469 19.1782 19.1782C17.8469 20.5096 17.1813 22.1169 17.1813 24.0002C17.1813 25.8835 17.8469 27.4908 19.1782 28.8221C20.5096 30.1534 22.1169 30.819 24.0002 30.819ZM24.0002 27.8967C22.9286 27.8967 22.0113 27.5151 21.2483 26.7521C20.4852 25.989 20.1037 25.0717 20.1037 24.0002C20.1037 22.9286 20.4852 22.0113 21.2483 21.2483C22.0113 20.4852 22.9286 20.1037 24.0002 20.1037C25.0717 20.1037 25.989 20.4852 26.7521 21.2483C27.5151 22.0113 27.8967 22.9286 27.8967 24.0002C27.8967 25.0717 27.5151 25.989 26.7521 26.7521C25.989 27.5151 25.0717 27.8967 24.0002 27.8967ZM24.0002 25.9484C24.5359 25.9484 24.9947 25.7578 25.3766 25.3766C25.7585 24.9954 25.9491 24.5366 25.9484 24.0002C25.9478 23.4637 25.7572 23.0053 25.3766 22.6247C24.996 22.2441 24.5372 22.0532 24.0002 22.0519C23.4631 22.0506 23.0046 22.2415 22.6247 22.6247C22.2448 23.0079 22.0539 23.4663 22.0519 24.0002C22.05 24.534 22.2409 24.9928 22.6247 25.3766C23.0085 25.7604 23.467 25.951 24.0002 25.9484Z" fill="#FFF1F0"/>
</svg>
