<svg width="26" height="26" viewBox="0 0 26 26" fill="none" xmlns="http://www.w3.org/2000/svg">
<path d="M21.4399 4.2478H4.24781C3.07973 4.2478 2.13464 5.20351 2.13464 6.37159V10.6192C3.30272 10.6192 4.24781 11.5749 4.24781 12.7429C4.24781 13.911 3.30272 14.8667 2.12402 14.8667V19.1143C2.12402 20.2824 3.07973 21.2381 4.24781 21.2381H21.2381C22.4062 21.2381 23.3619 20.2824 23.3619 19.1143V6.37159C23.3619 5.20351 22.5018 4.2478 21.4399 4.2478ZM21.2381 19.1143H4.24781V16.4171C5.51146 15.6844 6.3716 14.3039 6.3716 12.7429C6.3716 11.1713 5.52208 9.8015 4.25843 9.0688L4.24781 6.37159H21.2381V19.1143Z" fill="#5E5E5E"/>
</svg>
