<svg width="28" height="28" viewBox="0 0 28 28" fill="none" xmlns="http://www.w3.org/2000/svg">
<g clip-path="url(#clip0_648_1619)">
<path d="M14 1C8.225 1 3 5.4275 3 12.275C3 16.6475 6.36875 21.79 13.0925 27.7163C13.615 28.17 14.3988 28.17 14.9213 27.7163C21.6313 21.79 25 16.6475 25 12.275C25 5.4275 19.775 1 14 1ZM11.5662 15.6575L9.6275 13.7188C9.5002 13.5914 9.39922 13.4403 9.33033 13.274C9.26143 13.1077 9.22597 12.9294 9.22597 12.7494C9.22597 12.5693 9.26143 12.3911 9.33033 12.2248C9.39922 12.0584 9.5002 11.9073 9.6275 11.78C9.7548 11.6527 9.90593 11.5517 10.0723 11.4828C10.2386 11.4139 10.4168 11.3785 10.5969 11.3785C10.7769 11.3785 10.9552 11.4139 11.1215 11.4828C11.2878 11.5517 11.4389 11.6527 11.5662 11.78L12.5425 12.7563L16.4338 8.865C16.5611 8.7377 16.7122 8.63672 16.8785 8.56783C17.0448 8.49893 17.2231 8.46347 17.4031 8.46347C17.5832 8.46347 17.7614 8.49893 17.9277 8.56783C18.0941 8.63672 18.2452 8.7377 18.3725 8.865C18.4998 8.9923 18.6008 9.14343 18.6697 9.30975C18.7386 9.47608 18.774 9.65435 18.774 9.83438C18.774 10.0144 18.7386 10.1927 18.6697 10.359C18.6008 10.5253 18.4998 10.6764 18.3725 10.8038L13.505 15.6713C12.9825 16.1938 12.1025 16.1937 11.5662 15.6575Z" fill="#5E5E5E"/>
</g>
<defs>
<clipPath id="clip0_648_1619">
<rect width="28" height="28" fill="white"/>
</clipPath>
</defs>
</svg>
