<svg width="26" height="26" viewBox="0 0 26 26" fill="none" xmlns="http://www.w3.org/2000/svg">
<g clip-path="url(#clip0_708_1911)">
<path d="M12.7426 0.9104C7.48623 0.9104 2.73047 4.94029 2.73047 11.1728C2.73047 15.1527 5.79669 19.8333 11.9166 25.2274C12.3922 25.6404 13.1055 25.6404 13.5811 25.2274C19.6885 19.8333 22.7547 15.1527 22.7547 11.1728C22.7547 4.94029 17.999 0.9104 12.7426 0.9104ZM10.5274 14.2516L8.76278 12.4869C8.64691 12.3711 8.555 12.2335 8.49229 12.0821C8.42959 11.9307 8.39731 11.7685 8.39731 11.6046C8.39731 11.4408 8.42959 11.2785 8.49229 11.1271C8.555 10.9757 8.64691 10.8382 8.76278 10.7223C8.87865 10.6064 9.0162 10.5145 9.16759 10.4518C9.31898 10.3891 9.48124 10.3568 9.6451 10.3568C9.80896 10.3568 9.97122 10.3891 10.1226 10.4518C10.274 10.5145 10.4116 10.6064 10.5274 10.7223L11.416 11.6109L14.9578 8.06908C15.0737 7.95321 15.2112 7.8613 15.3626 7.79859C15.514 7.73588 15.6762 7.70361 15.8401 7.70361C16.004 7.70361 16.1662 7.73588 16.3176 7.79859C16.469 7.8613 16.6066 7.95321 16.7224 8.06908C16.8383 8.18495 16.9302 8.3225 16.9929 8.47389C17.0556 8.62528 17.0879 8.78754 17.0879 8.9514C17.0879 9.11526 17.0556 9.27752 16.9929 9.42891C16.9302 9.58029 16.8383 9.71785 16.7224 9.83372L12.2921 14.2641C11.8165 14.7397 11.0155 14.7397 10.5274 14.2516Z" fill="white"/>
</g>
<defs>
<clipPath id="clip0_708_1911">
<rect width="25.4854" height="25.4854" fill="white"/>
</clipPath>
</defs>
</svg>
