<svg width="26" height="26" viewBox="0 0 26 26" fill="none" xmlns="http://www.w3.org/2000/svg">
<path d="M6.21231 18.1584C7.11492 17.4681 8.12372 16.9241 9.23871 16.5262C10.3537 16.1284 11.5218 15.9291 12.743 15.9284C13.9641 15.9277 15.1322 16.127 16.2472 16.5262C17.3622 16.9255 18.371 17.4696 19.2736 18.1584C19.893 17.4327 20.3755 16.6098 20.721 15.6895C21.0664 14.7692 21.2388 13.7869 21.2381 12.7427C21.2381 10.3888 20.4109 8.38435 18.7565 6.72921C17.102 5.07407 15.0975 4.24686 12.743 4.24757C10.3884 4.24827 8.38389 5.07584 6.72946 6.73027C5.07503 8.3847 4.24781 10.3888 4.24781 12.7427C4.24781 13.7869 4.42055 14.7692 4.76601 15.6895C5.11148 16.6098 5.59358 17.4327 6.21231 18.1584ZM12.743 13.8046C11.6988 13.8046 10.8181 13.4464 10.101 12.73C9.38384 12.0135 9.02562 11.1329 9.02633 10.088C9.02704 9.04307 9.3856 8.16241 10.102 7.44599C10.8185 6.72956 11.6988 6.37135 12.743 6.37135C13.7872 6.37135 14.6678 6.72992 15.3849 7.44705C16.1021 8.16418 16.4603 9.04449 16.4596 10.088C16.4589 11.1315 16.1007 12.0121 15.3849 12.73C14.6692 13.4478 13.7886 13.806 12.743 13.8046ZM12.743 23.3616C11.274 23.3616 9.89354 23.0827 8.60157 22.5249C7.3096 21.967 6.18577 21.2106 5.23006 20.2556C4.27436 19.3006 3.51794 18.1768 2.9608 16.8841C2.40366 15.5914 2.12473 14.211 2.12402 12.7427C2.12332 11.2745 2.40224 9.89401 2.9608 8.60133C3.51935 7.30865 4.27577 6.18481 5.23006 5.22982C6.18435 4.27482 7.30819 3.5184 8.60157 2.96055C9.89496 2.4027 11.2754 2.12378 12.743 2.12378C14.2105 2.12378 15.591 2.4027 16.8843 2.96055C18.1777 3.5184 19.3016 4.27482 20.2559 5.22982C21.2101 6.18481 21.9669 7.30865 22.5262 8.60133C23.0854 9.89401 23.364 11.2745 23.3619 12.7427C23.3598 14.211 23.0808 15.5914 22.5251 16.8841C21.9694 18.1768 21.213 19.3006 20.2559 20.2556C19.2987 21.2106 18.1749 21.9674 16.8843 22.5259C15.5938 23.0845 14.2133 23.3631 12.743 23.3616Z" fill="white"/>
</svg>
