<svg width="18" height="16" viewBox="0 0 18 16" fill="none" xmlns="http://www.w3.org/2000/svg">
<path d="M17.1633 1.33172V6.33172M17.1633 6.33172H12.1633M17.1633 6.33172L13.305 2.69838C12.1555 1.54817 10.6633 0.802706 9.05328 0.574337C7.44325 0.345968 5.80262 0.647063 4.37861 1.43225C2.95459 2.21744 1.82435 3.44418 1.1582 4.92761C0.492042 6.41104 0.326067 8.07079 0.685282 9.65676C1.0445 11.2427 1.90944 12.669 3.14977 13.7206C4.39011 14.7722 5.93863 15.3922 7.562 15.4872C9.18536 15.5822 10.7956 15.147 12.1501 14.2471C13.5046 13.3473 14.53 12.0316 15.0716 10.4984" stroke="#FF7A6E" stroke-linecap="round" stroke-linejoin="round"/>
</svg>
