<svg width="25" height="16" viewBox="0 0 25 16" fill="none" xmlns="http://www.w3.org/2000/svg">
<path d="M23 0C24.1046 0 25 0.895431 25 2V6C23.8494 6 22.917 6.89543 22.917 8C22.917 9.03556 23.7365 9.88687 24.7871 9.98926L25 10V14C25 15.1046 24.1046 16 23 16H2C0.895431 16 0 15.1046 0 14V10C1.15059 10 2.08301 9.10457 2.08301 8C2.08301 6.89543 1.15059 6 0 6V2C0 0.895431 0.895431 0 2 0H23Z" fill="#FFA299"/>
<circle cx="8.5" cy="5.5" r="1.5" fill="white"/>
<circle cx="16.5" cy="10.5" r="1.5" fill="white"/>
<rect x="8" y="13.4336" width="13.3937" height="1.70079" rx="0.850394" transform="rotate(-58.6072 8 13.4336)" fill="white"/>
</svg>
