<svg width="7" height="11" viewBox="0 0 7 11" fill="none" xmlns="http://www.w3.org/2000/svg">
<path d="M0.155974 0.79422C-0.0519602 0.612511 -0.0519597 0.317902 0.155974 0.136193C0.363907 -0.0455162 0.701034 -0.0455167 0.908967 0.136193L0.53247 0.465206L0.155974 0.79422ZM6.53247 5.7085L6.15597 6.03751L0.155974 0.79422L0.53247 0.465206L0.908967 0.136193L6.90897 5.37948L6.53247 5.7085Z" fill="#50585F"/>
<path d="M0.908967 10.7942C0.701034 10.9759 0.363907 10.9759 0.155974 10.7942C-0.0519597 10.6125 -0.0519602 10.3179 0.155974 10.1362L0.53247 10.4652L0.908967 10.7942ZM6.53247 5.22192L6.90897 5.55094L0.908967 10.7942L0.53247 10.4652L0.155974 10.1362L6.15597 4.89291L6.53247 5.22192Z" fill="#50585F"/>
</svg>
