<svg width="9" height="15" viewBox="0 0 9 15" fill="none" xmlns="http://www.w3.org/2000/svg">
<path d="M0.292936 1.70715C-0.0975884 1.31663 -0.0975881 0.683461 0.292936 0.292936C0.683461 -0.0975881 1.31663 -0.0975884 1.70715 0.292936L1.00004 1.00004L0.292936 1.70715ZM7.81567 7.81567L7.10857 8.52278L0.292936 1.70715L1.00004 1.00004L1.70715 0.292936L8.52278 7.10857L7.81567 7.81567Z" fill="#D3D3D3"/>
<path d="M1.70715 14.7069C1.31663 15.0975 0.683461 15.0975 0.292936 14.7069C-0.0975881 14.3164 -0.0975884 13.6833 0.292936 13.2927L1.00004 13.9998L1.70715 14.7069ZM7.81567 7.1842L8.52278 7.89131L1.70715 14.7069L1.00004 13.9998L0.292936 13.2927L7.10857 6.4771L7.81567 7.1842Z" fill="#D3D3D3"/>
</svg>
