<svg width="15" height="9" viewBox="0 0 15 9" fill="none" xmlns="http://www.w3.org/2000/svg">
<path d="M0.329385 0.329385C0.540353 0.11848 0.82645 0 1.12476 0C1.42307 0 1.70917 0.11848 1.92013 0.329385L7.48888 5.89813L13.0576 0.329385C13.2698 0.124457 13.554 0.0110629 13.849 0.0136262C14.1439 0.0161894 14.4261 0.134505 14.6347 0.343089C14.8433 0.551673 14.9616 0.833837 14.9641 1.12881C14.9667 1.42378 14.8533 1.70796 14.6484 1.92013L8.28426 8.28426C8.07329 8.49516 7.78719 8.61364 7.48888 8.61364C7.19058 8.61364 6.90448 8.49516 6.69351 8.28426L0.329385 1.92013C0.11848 1.70917 0 1.42307 0 1.12476C0 0.82645 0.11848 0.540354 0.329385 0.329385Z" fill="#717171"/>
</svg>
