<svg width="17" height="16" viewBox="0 0 17 16" fill="none" xmlns="http://www.w3.org/2000/svg">
<path d="M0.464355 7.01855C1.29769 8.68547 4.06436 12.0193 8.46436 12.0193C12.8644 12.0193 15.7977 8.68547 16.4644 7.01856M0.464355 7.04712C1.29769 8.71403 4.06436 12.0479 8.46436 12.0479C12.8644 12.0479 15.7977 8.71404 16.4644 7.04713" stroke="black"/>
<path d="M16.4644 7.44824C15.631 5.78133 12.8644 2.44751 8.46436 2.44751C4.06436 2.44751 1.13102 5.78132 0.464355 7.44823M16.4644 7.41968C15.631 5.75277 12.8644 2.41895 8.46436 2.41895C4.06436 2.41895 1.13102 5.75276 0.464355 7.41967" stroke="black"/>
<circle cx="8.46436" cy="7.41895" r="3" fill="black"/>
<line x1="1.74007" y1="1.20729" x2="15.1886" y2="14.6288" stroke="black" stroke-linecap="round"/>
<line x1="2.44636" y1="0.500263" x2="15.8949" y2="13.9217" stroke="white" stroke-linecap="round"/>
<path d="M10.0308 5.92166C9.2533 5.13704 8.10434 5.01494 7.46449 5.64895L10.2799 8.49033C10.9198 7.85632 10.8082 6.70629 10.0308 5.92166Z" fill="white"/>
</svg>
