<svg width="26" height="26" viewBox="0 0 26 26" fill="none" xmlns="http://www.w3.org/2000/svg">
<g clip-path="url(#clip0_1089_17420)">
<path d="M12.7426 0.910156C7.48623 0.910156 2.73047 4.94004 2.73047 11.1726C2.73047 15.1524 5.79669 19.8331 11.9166 25.2271C12.3922 25.6401 13.1055 25.6401 13.5811 25.2271C19.6885 19.8331 22.7547 15.1524 22.7547 11.1726C22.7547 4.94004 17.999 0.910156 12.7426 0.910156ZM10.5274 14.2513L8.76278 12.4867C8.64691 12.3708 8.555 12.2333 8.49229 12.0819C8.42959 11.9305 8.39731 11.7682 8.39731 11.6044C8.39731 11.4405 8.42959 11.2783 8.49229 11.1269C8.555 10.9755 8.64691 10.8379 8.76278 10.722C8.87865 10.6062 9.0162 10.5143 9.16759 10.4516C9.31898 10.3889 9.48124 10.3566 9.6451 10.3566C9.80896 10.3566 9.97122 10.3889 10.1226 10.4516C10.274 10.5143 10.4116 10.6062 10.5274 10.722L11.416 11.6106L14.9578 8.06883C15.0737 7.95297 15.2112 7.86105 15.3626 7.79835C15.514 7.73564 15.6762 7.70337 15.8401 7.70337C16.004 7.70337 16.1662 7.73564 16.3176 7.79835C16.469 7.86105 16.6066 7.95297 16.7224 8.06883C16.8383 8.1847 16.9302 8.32226 16.9929 8.47365C17.0556 8.62503 17.0879 8.78729 17.0879 8.95115C17.0879 9.11502 17.0556 9.27727 16.9929 9.42866C16.9302 9.58005 16.8383 9.71761 16.7224 9.83347L12.2921 14.2638C11.8165 14.7394 11.0155 14.7394 10.5274 14.2513Z" fill="#FF7A6E"/>
</g>
<defs>
<clipPath id="clip0_1089_17420">
<rect width="25.4854" height="25.4854" fill="white"/>
</clipPath>
</defs>
</svg>
