<svg width="17" height="11" viewBox="0 0 17 11" fill="none" xmlns="http://www.w3.org/2000/svg">
<path d="M0.464355 5.09961C1.29769 6.76652 4.06436 10.1003 8.46436 10.1003C12.8644 10.1003 15.7977 6.76653 16.4644 5.09962M0.464355 5.12817C1.29769 6.79508 4.06436 10.1289 8.46436 10.1289C12.8644 10.1289 15.7977 6.79509 16.4644 5.12818" stroke="black"/>
<path d="M16.4644 5.5293C15.631 3.86239 12.8644 0.528564 8.46436 0.528564C4.06436 0.528564 1.13102 3.86238 0.464355 5.52929M16.4644 5.50073C15.631 3.83382 12.8644 0.5 8.46436 0.5C4.06436 0.5 1.13102 3.83381 0.464355 5.50072" stroke="black"/>
<circle cx="8.46436" cy="5.5" r="3" fill="black"/>
</svg>
