<svg width="20" height="20" viewBox="0 0 20 20" fill="none" xmlns="http://www.w3.org/2000/svg">
<path d="M9.99984 6.66669C11.6387 6.66669 13.2533 6.99655 14.8436 7.65627C16.4339 8.31599 17.8471 9.30558 19.0832 10.625C19.2498 10.7917 19.3332 10.9861 19.3332 11.2084C19.3332 11.4306 19.2498 11.625 19.0832 11.7917L17.1665 13.6667C17.0137 13.8195 16.8366 13.9028 16.6353 13.9167C16.4339 13.9306 16.2498 13.875 16.0832 13.75L13.6665 11.9167C13.5554 11.8334 13.4721 11.7361 13.4165 11.625C13.3609 11.5139 13.3332 11.3889 13.3332 11.25V8.87502C12.8054 8.70835 12.2637 8.57641 11.7082 8.47919C11.1526 8.38196 10.5832 8.33335 9.99984 8.33335C9.4165 8.33335 8.84706 8.38196 8.2915 8.47919C7.73595 8.57641 7.19428 8.70835 6.6665 8.87502V11.25C6.6665 11.3889 6.63873 11.5139 6.58317 11.625C6.52761 11.7361 6.44428 11.8334 6.33317 11.9167L3.9165 13.75C3.74984 13.875 3.56581 13.9306 3.36442 13.9167C3.16303 13.9028 2.98595 13.8195 2.83317 13.6667L0.916504 11.7917C0.749837 11.625 0.666504 11.4306 0.666504 11.2084C0.666504 10.9861 0.749837 10.7917 0.916504 10.625C2.13873 9.30558 3.54845 8.31599 5.14567 7.65627C6.74289 6.99655 8.36095 6.66669 9.99984 6.66669Z" fill="#717171"/>
</svg>
