<svg width="20" height="20" viewBox="0 0 20 20" fill="none" xmlns="http://www.w3.org/2000/svg">
<path d="M9.99984 18.3334C8.86095 18.3334 7.78456 18.1146 6.77067 17.6771C5.75678 17.2396 4.87136 16.6424 4.11442 15.8854C3.35748 15.1285 2.76025 14.2431 2.32275 13.2292C1.88525 12.2153 1.6665 11.1389 1.6665 10C1.6665 8.84724 1.88525 7.76738 2.32275 6.76044C2.76025 5.75349 3.35748 4.87155 4.11442 4.1146C4.87136 3.35766 5.75678 2.76044 6.77067 2.32294C7.78456 1.88544 8.86095 1.66669 9.99984 1.66669C11.1526 1.66669 12.2325 1.88544 13.2394 2.32294C14.2464 2.76044 15.1283 3.35766 15.8853 4.1146C16.6422 4.87155 17.2394 5.75349 17.6769 6.76044C18.1144 7.76738 18.3332 8.84724 18.3332 10C18.3332 11.1389 18.1144 12.2153 17.6769 13.2292C17.2394 14.2431 16.6422 15.1285 15.8853 15.8854C15.1283 16.6424 14.2464 17.2396 13.2394 17.6771C12.2325 18.1146 11.1526 18.3334 9.99984 18.3334ZM9.99984 16.625C10.3609 16.125 10.6734 15.6042 10.9373 15.0625C11.2012 14.5209 11.4165 13.9445 11.5832 13.3334H8.4165C8.58317 13.9445 8.79845 14.5209 9.06234 15.0625C9.32623 15.6042 9.63873 16.125 9.99984 16.625ZM7.83317 16.2917C7.58317 15.8334 7.36442 15.3577 7.17692 14.8646C6.98942 14.3715 6.83317 13.8611 6.70817 13.3334H4.24984C4.65262 14.0278 5.15609 14.632 5.76025 15.1459C6.36442 15.6597 7.05539 16.0417 7.83317 16.2917ZM12.1665 16.2917C12.9443 16.0417 13.6353 15.6597 14.2394 15.1459C14.8436 14.632 15.3471 14.0278 15.7498 13.3334H13.2915C13.1665 13.8611 13.0103 14.3715 12.8228 14.8646C12.6353 15.3577 12.4165 15.8334 12.1665 16.2917ZM3.5415 11.6667H6.37484C6.33317 11.3889 6.30192 11.1146 6.28109 10.8438C6.26025 10.5729 6.24984 10.2917 6.24984 10C6.24984 9.70835 6.26025 9.4271 6.28109 9.15627C6.30192 8.88544 6.33317 8.61113 6.37484 8.33335H3.5415C3.47206 8.61113 3.41998 8.88544 3.38525 9.15627C3.35053 9.4271 3.33317 9.70835 3.33317 10C3.33317 10.2917 3.35053 10.5729 3.38525 10.8438C3.41998 11.1146 3.47206 11.3889 3.5415 11.6667ZM8.0415 11.6667H11.9582C11.9998 11.3889 12.0311 11.1146 12.0519 10.8438C12.0728 10.5729 12.0832 10.2917 12.0832 10C12.0832 9.70835 12.0728 9.4271 12.0519 9.15627C12.0311 8.88544 11.9998 8.61113 11.9582 8.33335H8.0415C7.99984 8.61113 7.96859 8.88544 7.94775 9.15627C7.92692 9.4271 7.9165 9.70835 7.9165 10C7.9165 10.2917 7.92692 10.5729 7.94775 10.8438C7.96859 11.1146 7.99984 11.3889 8.0415 11.6667ZM13.6248 11.6667H16.4582C16.5276 11.3889 16.5797 11.1146 16.6144 10.8438C16.6491 10.5729 16.6665 10.2917 16.6665 10C16.6665 9.70835 16.6491 9.4271 16.6144 9.15627C16.5797 8.88544 16.5276 8.61113 16.4582 8.33335H13.6248C13.6665 8.61113 13.6978 8.88544 13.7186 9.15627C13.7394 9.4271 13.7498 9.70835 13.7498 10C13.7498 10.2917 13.7394 10.5729 13.7186 10.8438C13.6978 11.1146 13.6665 11.3889 13.6248 11.6667ZM13.2915 6.66669H15.7498C15.3471 5.97224 14.8436 5.36808 14.2394 4.85419C13.6353 4.3403 12.9443 3.95835 12.1665 3.70835C12.4165 4.16669 12.6353 4.64238 12.8228 5.13544C13.0103 5.62849 13.1665 6.13891 13.2915 6.66669ZM8.4165 6.66669H11.5832C11.4165 6.05558 11.2012 5.47919 10.9373 4.93752C10.6734 4.39585 10.3609 3.87502 9.99984 3.37502C9.63873 3.87502 9.32623 4.39585 9.06234 4.93752C8.79845 5.47919 8.58317 6.05558 8.4165 6.66669ZM4.24984 6.66669H6.70817C6.83317 6.13891 6.98942 5.62849 7.17692 5.13544C7.36442 4.64238 7.58317 4.16669 7.83317 3.70835C7.05539 3.95835 6.36442 4.3403 5.76025 4.85419C5.15609 5.36808 4.65262 5.97224 4.24984 6.66669Z" fill="#717171"/>
</svg>
