<svg width="20" height="20" viewBox="0 0 20 20" fill="none" xmlns="http://www.w3.org/2000/svg">
<path d="M10.0724 0.999817C6.35991 0.999817 3.00098 3.84607 3.00098 8.24803C3.00098 11.0589 5.1666 14.3648 9.48901 18.1745C9.82491 18.4662 10.3287 18.4662 10.6646 18.1745C14.9782 14.3648 17.1438 11.0589 17.1438 8.24803C17.1438 3.84607 13.7849 0.999817 10.0724 0.999817ZM8.50785 10.4225L7.26151 9.17616C7.17968 9.09432 7.11476 8.99717 7.07047 8.89024C7.02618 8.78332 7.00339 8.66872 7.00339 8.55299C7.00339 8.43725 7.02618 8.32265 7.07047 8.21573C7.11476 8.10881 7.17968 8.01165 7.26151 7.92982C7.34335 7.84798 7.4405 7.78307 7.54742 7.73878C7.65435 7.69449 7.76895 7.67169 7.88468 7.67169C8.00041 7.67169 8.11502 7.69449 8.22194 7.73878C8.32886 7.78307 8.42602 7.84798 8.50785 7.92982L9.13544 8.55741L11.637 6.05589C11.7188 5.97405 11.8159 5.90914 11.9229 5.86485C12.0298 5.82056 12.1444 5.79776 12.2601 5.79776C12.3759 5.79776 12.4905 5.82056 12.5974 5.86485C12.7043 5.90914 12.8015 5.97405 12.8833 6.05589C12.9651 6.13772 13.03 6.23488 13.0743 6.3418C13.1186 6.44873 13.1414 6.56332 13.1414 6.67906C13.1414 6.79479 13.1186 6.90939 13.0743 7.01631C13.03 7.12324 12.9651 7.22039 12.8833 7.30223L9.75419 10.4313C9.4183 10.7672 8.85258 10.7672 8.50785 10.4225Z" fill="#717171"/>
</svg>
