<svg width="34" height="49" viewBox="0 0 34 49" fill="none" xmlns="http://www.w3.org/2000/svg">
<path d="M20.1387 44.6631C21.1414 44.6632 21.951 45.4843 21.9512 46.499C21.9528 46.7385 21.9067 46.9764 21.8164 47.1982C21.7262 47.42 21.5931 47.6217 21.4248 47.792C21.2565 47.9623 21.0566 48.0985 20.8359 48.1914C20.6153 48.2843 20.3781 48.3327 20.1387 48.334H13.6953C13.4558 48.3324 13.2187 48.2836 12.998 48.1904C12.7774 48.0973 12.5774 47.9614 12.4092 47.791C12.2409 47.6205 12.1078 47.4182 12.0176 47.1963C11.9274 46.9743 11.8812 46.7386 11.8828 46.499C11.883 45.4843 12.6927 44.6632 13.6953 44.6631H20.1387ZM21.75 38.5439C22.7505 38.5439 23.5625 39.3659 23.5625 40.3809C23.5623 41.3956 22.7503 42.2168 21.75 42.2168H12.084C11.8444 42.2152 11.6074 42.1664 11.3867 42.0732C11.166 41.9801 10.9652 41.8444 10.7969 41.6738C10.6287 41.5033 10.4955 41.301 10.4053 41.0791C10.3152 40.8574 10.27 40.6201 10.2715 40.3809C10.2715 39.3659 11.0835 38.5439 12.084 38.5439H21.75ZM16.917 0C26.2597 4.08975e-07 33.8338 6.86833 33.834 15.2178L33.8311 15.4238C33.8116 20.3078 31.7332 25.0084 28.0068 28.585L25.3389 31.1299C24.5924 31.8427 24.167 32.838 24.167 33.877C24.167 35.4405 22.9153 36.7099 21.3711 36.71H12.4629C10.9187 36.7099 9.66699 35.4405 9.66699 33.877C9.66694 32.838 9.24402 31.8427 8.49512 31.1299L5.82422 28.585C2.10264 25.0084 0.0218443 20.3078 0 15.4238V15.2178C0.000181002 6.86833 7.57427 0 16.917 0Z" fill="white"/>
</svg>
