<svg width="57" height="58" viewBox="0 0 57 58" fill="none" xmlns="http://www.w3.org/2000/svg">
<path fill-rule="evenodd" clip-rule="evenodd" d="M16.7661 36.2002C18.1045 36.2274 19.4349 35.9872 20.6793 35.4938C21.9237 35.0004 23.0572 34.2637 24.0134 33.3267C24.9695 32.3898 25.7291 31.2715 26.2476 30.0373C26.7662 28.8032 27.0333 27.478 27.0333 26.1393C27.0333 24.8006 26.7662 23.4754 26.2476 22.2412C25.7291 21.0071 24.9695 19.8888 24.0134 18.9519C23.0572 18.0149 21.9237 17.2782 20.6793 16.7848C19.4349 16.2914 18.1045 16.0512 16.7661 16.0784C14.1332 16.1318 11.6261 17.2153 9.78287 19.0962C7.93968 20.9772 6.90731 23.5058 6.90731 26.1393C6.90731 28.7728 7.93968 31.3014 9.78287 33.1823C11.6261 35.0633 14.1332 36.1468 16.7661 36.2002ZM0 56.3221C0.0691873 51.9205 1.86626 47.7226 5.00339 44.6344C8.14051 41.5462 12.3661 39.8154 16.7682 39.8154C21.1703 39.8154 25.3959 41.5462 28.533 44.6344C31.6701 47.7226 33.4672 51.9205 33.5364 56.3221C33.5364 56.767 33.3596 57.1938 33.045 57.5085C32.7303 57.8231 32.3036 57.9999 31.8586 57.9999H1.67786C1.23286 57.9999 0.806092 57.8231 0.491433 57.5085C0.176774 57.1938 0 56.767 0 56.3221Z" fill="white"/>
<path fill-rule="evenodd" clip-rule="evenodd" d="M32.771 6.53296C32.771 5.66664 33.1151 4.83579 33.7277 4.22321C34.3403 3.61063 35.1712 3.26648 36.0375 3.26648H51.2811C52.1474 3.26648 52.9782 3.61063 53.5908 4.22321C54.2034 4.83579 54.5475 5.66664 54.5475 6.53296V17.4212C54.5475 18.2876 54.2034 19.1184 53.5908 19.731C52.9782 20.3436 52.1474 20.6877 51.2811 20.6877H38.5777L34.9487 23.4098C34.0515 24.0827 32.771 23.4424 32.771 22.321V6.53296Z" fill="white"/>
<path fill-rule="evenodd" clip-rule="evenodd" d="M39.3037 13.0659C39.0149 13.0659 38.7379 13.1807 38.5338 13.3849C38.3296 13.589 38.2148 13.866 38.2148 14.1548C38.2148 14.4435 38.3296 14.7205 38.5338 14.9247C38.7379 15.1289 39.0149 15.2436 39.3037 15.2436H42.5702C42.8589 15.2436 43.1359 15.1289 43.3401 14.9247C43.5443 14.7205 43.659 14.4435 43.659 14.1548C43.659 13.866 43.5443 13.589 43.3401 13.3849C43.1359 13.1807 42.8589 13.0659 42.5702 13.0659H39.3037ZM38.2148 9.79946C38.2148 9.51068 38.3296 9.23374 38.5338 9.02954C38.7379 8.82535 39.0149 8.71063 39.3037 8.71063H48.0143C48.3031 8.71063 48.58 8.82535 48.7842 9.02954C48.9884 9.23374 49.1031 9.51068 49.1031 9.79946C49.1031 10.0882 48.9884 10.3652 48.7842 10.5694C48.58 10.7736 48.3031 10.8883 48.0143 10.8883H39.3037C39.0149 10.8883 38.7379 10.7736 38.5338 10.5694C38.3296 10.3652 38.2148 10.0882 38.2148 9.79946Z" fill="#FF7A6E"/>
</svg>
